<svg width="29" height="30" viewBox="0 0 29 30" fill="none" xmlns="http://www.w3.org/2000/svg">
<path fill-rule="evenodd" clip-rule="evenodd" d="M20.447 19.0404L28.1416 26.9316L25.89 29.2503L18.1953 21.3496C15.9348 23.0839 13.1176 23.8757 10.3108 23.5656C7.50401 23.2555 4.91595 21.8665 3.06755 19.6783C1.21915 17.49 0.247615 14.6649 0.34858 11.7717C0.449544 8.87841 1.6155 6.13177 3.61171 4.08461C5.60791 2.03746 8.28611 0.84177 11.1074 0.738228C13.9286 0.634686 16.6834 1.63098 18.8172 3.52656C20.951 5.42214 22.3054 8.07628 22.6078 10.9547C22.9102 13.8332 22.1381 16.7223 20.447 19.0404ZM11.5053 20.3572C13.0806 20.3572 14.6205 19.8782 15.9303 18.9807C17.24 18.0832 18.2609 16.8076 18.8637 15.3151C19.4665 13.8226 19.6243 12.1803 19.317 10.5959C19.0097 9.01148 18.251 7.5561 17.1372 6.4138C16.0233 5.2715 14.6042 4.49359 13.0592 4.17843C11.5142 3.86327 9.91278 4.02503 8.45745 4.64323C7.00211 5.26144 5.75827 6.30834 4.88311 7.65154C4.00795 8.99474 3.54083 10.5739 3.54083 12.1894C3.5433 14.3548 4.38325 16.4309 5.87636 17.9621C7.36947 19.4934 9.39376 20.3547 11.5053 20.3572Z" fill="white"/>
</svg>
